<svg width="50" height="50" viewBox="0 0 50 50" fill="none" xmlns="http://www.w3.org/2000/svg">
<path d="M25.1629 6.24585C25.1807 6.24589 25.1999 6.24593 25.2204 6.24598L25.4417 6.24667C28.0098 6.25611 41.0257 6.35045 44.5351 7.29392C46.6864 7.87093 48.3805 9.57142 48.9554 11.73C49.272 12.9159 49.4926 14.4921 49.6464 16.1132L49.6762 16.438C49.7004 16.7089 49.7228 16.9804 49.7435 17.251L49.7675 17.575C49.9729 20.4316 49.9969 23.1047 49.9997 23.6896L50 23.7685C50 23.7749 50 23.7855 50 23.7855V23.8298C50 23.8298 50 23.8404 50 23.8468L49.9997 23.9257C49.9968 24.5327 49.9711 27.3886 49.7435 30.3645L49.7178 30.6896L49.6905 31.0149C49.5358 32.8042 49.3036 34.581 48.9554 35.8853C48.3805 38.0439 46.6864 39.7448 44.5351 40.3214C40.9088 41.2967 27.1315 41.365 25.2204 41.3697L25.0732 41.37C25.0612 41.37 25.0506 41.3701 25.0414 41.3701L24.9814 41.3701C24.9814 41.3701 24.9676 41.3701 24.9585 41.3701L24.7795 41.3697C23.8137 41.3673 19.8173 41.3487 15.6321 41.205L15.097 41.1859C15.0077 41.1826 14.9184 41.1793 14.8291 41.1759L14.2934 41.1547L13.7589 41.1321C10.2917 40.9799 6.98594 40.7304 5.46521 40.3214C3.31389 39.7448 1.61984 38.0439 1.04486 35.8853C0.69653 34.581 0.464309 32.8042 0.309494 31.0149L0.28219 30.6896L0.256541 30.3645C0.0371247 27.4968 0.00527399 24.7405 0.000650499 24.0007L9.80056e-05 23.8949C5.92341e-05 23.8853 2.69246e-05 23.8765 0 23.8685V23.7468C2.69246e-05 23.7388 5.92341e-05 23.73 9.80056e-05 23.7205L0.000650499 23.6146C0.00483781 22.9446 0.0313575 20.6207 0.199315 18.058L0.221055 17.7365C0.224804 17.6827 0.228617 17.6289 0.232494 17.575L0.256541 17.251C0.277241 16.9804 0.29961 16.7089 0.323783 16.438L0.353665 16.1132C0.50749 14.4921 0.728197 12.9159 1.04486 11.73C1.61984 9.57142 3.31389 7.87093 5.46521 7.29392C6.98594 6.88508 10.2917 6.63569 13.7589 6.48357L14.2934 6.46092L14.8291 6.43976C14.9184 6.43635 15.0077 6.43301 15.097 6.42972L15.6321 6.41069C19.5502 6.27619 23.3028 6.25128 24.5583 6.24667L24.7795 6.24598C24.8 6.24593 24.8192 6.24589 24.837 6.24585H25.1629ZM20.0001 16.2808V31.3345L32.9899 23.8081L20.0001 16.2808Z" fill="black"/>
</svg>
